<svg width="500" height="606" fill="none" xmlns="http://www.w3.org/2000/svg"><g filter="url(#a)"><rect x="25" y="46" width="224" height="309" rx="13" fill="#fff"/></g><mask id="b" style="mask-type:alpha" maskUnits="userSpaceOnUse" x="25" y="46" width="224" height="309"><rect x="25" y="46" width="224" height="309" rx="13" fill="#fff"/></mask><g mask="url(#b)"><path fill-rule="evenodd" clip-rule="evenodd" d="M-11.826 286.688 81.5 255.026l55.5-81.855 56.5 18.009 75.169-116.671V315l-280.495-1v-27.312Z" fill="url(#c)"/><path d="M-11.826 286.688 81.5 255.026l55.5-81.855 56.5 18.009 75.169-116.671V315" stroke="#5175FF" stroke-width="2"/><path opacity=".152" fill="#5175FF" d="M137 46h1v250h-1zM81 46h1v250h-1zM194 46h1v250h-1z"/><circle cx="137" cy="173" r="6" fill="#5175FF"/><circle opacity=".25" cx="137" cy="173" r="17.5" stroke="#5175FF"/><circle cx="81" cy="255" r="6" fill="#5175FF"/><circle cx="194" cy="191" r="6" fill="#5175FF"/><circle cx="249" cy="106" r="6" fill="#5175FF"/><circle cx="25" cy="274" r="6" fill="#5175FF"/><path opacity=".5" d="m128.476 338.934-.107-1.397c1.056 0 1.584-.449 1.584-1.348v-7.246h1.644v7.144c0 .981-.253 1.701-.758 2.159-.501.458-1.289.688-2.363.688Zm4.345-3.411a1.6 1.6 0 0 1 .306-.961c.208-.283.493-.507.854-.672a2.963 2.963 0 0 1 1.241-.247c.147 0 .301.009.462.027.165.018.33.041.494.07-.118-.584-.542-.876-1.273-.876-.433 0-.868.163-1.305.489l-.532-1.305a5.49 5.49 0 0 1 1.101-.398 4.469 4.469 0 0 1 1.032-.129c.519 0 .968.099 1.348.296.383.193.68.469.891.827.212.355.317.772.317 1.252V337h-1.299l-.103-.575a2.13 2.13 0 0 1-.735.5 2.392 2.392 0 0 1-.946.182c-.544 0-.99-.146-1.337-.44a1.434 1.434 0 0 1-.516-1.144Zm1.547-.355c0 .179.068.325.204.436.14.107.323.161.548.161.308 0 .566-.093.774-.28a.88.88 0 0 0 .316-.687v-.108a2.87 2.87 0 0 0-.875-.139c-.304 0-.543.053-.714.161a.51.51 0 0 0-.253.456Zm4.684 1.832v-5.371h1.353l.065.655c.211-.243.463-.431.757-.564.297-.132.623-.199.978-.199.626 0 1.126.208 1.498.624.373.411.559.986.559 1.724V337h-1.553v-2.831c0-.87-.325-1.305-.977-1.305a1.03 1.03 0 0 0-.822.371c-.208.247-.311.594-.311 1.042V337h-1.547ZM74.007 337.011h-2.535v-8.057h2.535c1.582 0 2.798.351 3.647 1.053.848.698 1.273 1.686 1.273 2.965 0 1.282-.425 2.275-1.273 2.981-.849.705-2.064 1.058-3.647 1.058Zm.037-1.45c1.039 0 1.834-.226 2.385-.677.555-.455.833-1.092.833-1.912 0-.817-.278-1.449-.833-1.896-.551-.448-1.346-.672-2.385-.672h-.929v5.157h.93Zm6.93-.785c.096.298.273.539.53.725.262.187.567.28.914.28.372 0 .68-.059.924-.177.247-.122.47-.278.671-.468l.935 1.117c-.416.326-.827.55-1.236.672a4.031 4.031 0 0 1-1.165.182c-.594 0-1.12-.12-1.574-.359a2.747 2.747 0 0 1-1.069-.999 2.75 2.75 0 0 1-.386-1.451c0-.533.123-1.008.37-1.423a2.675 2.675 0 0 1 1.01-.988c.43-.244.917-.366 1.46-.366.542 0 1.021.12 1.44.36.423.24.756.57 1 .989.243.419.365.898.365 1.439v.467h-4.19Zm2.599-.859a1.38 1.38 0 0 0-.462-.763 1.27 1.27 0 0 0-.838-.29c-.33 0-.616.099-.86.296-.24.197-.397.449-.472.757h2.632Zm7.326 2.395a2.77 2.77 0 0 1-.94.586c-.362.14-.755.209-1.182.209-.569 0-1.078-.12-1.525-.359a2.787 2.787 0 0 1-1.053-.994 2.709 2.709 0 0 1-.386-1.44c0-.537.128-1.015.386-1.434a2.732 2.732 0 0 1 1.053-.993 3.134 3.134 0 0 1 1.525-.366c.427 0 .82.07 1.182.21.365.14.678.335.94.585l-1.09 1.026c-.258-.318-.602-.478-1.032-.478-.394 0-.72.138-.977.414-.258.276-.387.621-.387 1.036 0 .416.129.761.387 1.037.258.276.584.414.977.414.43 0 .774-.16 1.032-.478l1.09 1.025ZM15.316 328.943h1.633l4.135 5.414v-5.414h1.644V337h-1.66l-4.14-5.425V337h-1.612v-8.057Zm8.432 5.371c0-.537.124-1.015.371-1.434.25-.422.591-.753 1.02-.993a2.958 2.958 0 0 1 1.478-.366c.551 0 1.042.122 1.471.366.43.24.768.571 1.015.993.251.419.377.897.377 1.434 0 .538-.126 1.017-.377 1.44-.247.419-.585.75-1.015.994-.43.239-.92.359-1.471.359-.552 0-1.044-.12-1.477-.359a2.75 2.75 0 0 1-1.02-.994 2.8 2.8 0 0 1-.372-1.44Zm1.504 0c0 .416.13.761.387 1.037.258.276.584.414.978.414s.72-.138.977-.414c.258-.276.387-.621.387-1.037 0-.415-.129-.76-.387-1.036a1.28 1.28 0 0 0-.977-.414c-.394 0-.72.138-.978.414-.258.276-.387.621-.387 1.036Zm4.33-2.685h1.68l.973 2.616c.05.136.105.334.166.596.065.261.115.498.15.709h.022c.043-.211.097-.446.161-.704.068-.258.127-.458.178-.601l.897-2.616h1.627L33.315 337H31.81l-2.23-5.371ZM184.003 328.943h4.963v1.451h-3.319v1.74h3.104v1.45h-3.104V337h-1.644v-8.057Zm7.278 5.833c.097.298.274.539.532.725.261.187.566.28.913.28.372 0 .68-.059.924-.177.247-.122.471-.278.671-.468l.935 1.117c-.416.326-.827.55-1.235.672a4.038 4.038 0 0 1-1.166.182c-.594 0-1.119-.12-1.574-.359a2.747 2.747 0 0 1-1.069-.999 2.757 2.757 0 0 1-.386-1.451c0-.533.123-1.008.37-1.423a2.676 2.676 0 0 1 1.01-.988c.43-.244.917-.366 1.461-.366.541 0 1.021.12 1.439.36.423.24.756.57.999.989.244.419.366.898.366 1.439v.467h-4.19Zm2.6-.859a1.377 1.377 0 0 0-.462-.763 1.271 1.271 0 0 0-.838-.29c-.329 0-.616.099-.859.296-.24.197-.398.449-.473.757h2.632Zm2.616 3.083v-8.057h1.546v3.218c.226-.201.484-.357.774-.468.29-.114.603-.172.94-.172.505 0 .954.122 1.348.366.394.24.704.571.929.993.226.419.339.897.339 1.434 0 .538-.113 1.017-.339 1.44-.225.419-.535.75-.929.994a2.547 2.547 0 0 1-1.348.359c-.347 0-.672-.059-.972-.177a2.452 2.452 0 0 1-.79-.51l-.037.58h-1.461Zm2.911-1.235c.394 0 .719-.138.977-.414.258-.276.387-.621.387-1.037 0-.415-.129-.76-.387-1.036a1.28 1.28 0 0 0-.977-.414c-.394 0-.72.138-.978.414-.258.276-.387.621-.387 1.036 0 .416.129.761.387 1.037.258.276.584.414.978.414ZM239.418 337v-8.057h2.138l1.772 3.798c.082.207.163.417.242.628.082.208.161.417.236.629a10.704 10.704 0 0 1 .5-1.257l1.767-3.798h2.094V337h-1.643c0-.981.009-1.939.027-2.874.018-.934.055-1.87.113-2.809-.094.247-.192.493-.296.736-.1.244-.206.484-.317.72l-1.359 2.911h-1.804l-1.354-2.9a64.797 64.797 0 0 1-.628-1.596c.039.624.07 1.227.091 1.811.025.58.041 1.19.048 1.831.011.641.017 1.364.017 2.17h-1.644Zm9.979-1.477a1.6 1.6 0 0 1 .307-.961 2.12 2.12 0 0 1 .854-.672 2.955 2.955 0 0 1 1.24-.247c.147 0 .301.009.462.027.165.018.33.041.494.07-.118-.584-.542-.876-1.273-.876-.433 0-.868.163-1.305.489l-.531-1.305a5.447 5.447 0 0 1 1.101-.398 4.454 4.454 0 0 1 1.031-.129c.519 0 .968.099 1.348.296.383.193.68.469.892.827.211.355.316.772.316 1.252V337h-1.299l-.102-.575a2.143 2.143 0 0 1-.736.5 2.392 2.392 0 0 1-.946.182c-.544 0-.99-.146-1.337-.44a1.434 1.434 0 0 1-.516-1.144Zm1.547-.355c0 .179.068.325.204.436.14.107.323.161.548.161.308 0 .566-.093.774-.28a.88.88 0 0 0 .317-.687v-.108a2.913 2.913 0 0 0-.876-.139c-.304 0-.542.053-.714.161a.51.51 0 0 0-.253.456Zm4.684 1.832v-5.371h1.353l.076.768c.39-.584.927-.876 1.611-.876.233 0 .473.036.72.108l-.215 1.337a1.963 1.963 0 0 0-.612-.102c-.416 0-.751.154-1.005.462-.254.305-.381.74-.381 1.305V337h-1.547Z" fill="#747B95"/><path opacity=".25" fill="#747B95" d="M25 314h224v1H25zM137 306h1v8h-1zM81 306h1v8h-1zM193 306h1v8h-1z"/></g><g filter="url(#d)"><rect x="25" y="385" width="224" height="146" rx="13" fill="#333950"/></g><mask id="e" style="mask-type:alpha" maskUnits="userSpaceOnUse" x="25" y="385" width="224" height="146"><rect x="25" y="385" width="224" height="146" rx="13" fill="#fff"/></mask><g mask="url(#e)"><path fill-rule="evenodd" clip-rule="evenodd" d="M105.64 477.552V480H89.152v-2.448l5.976-.864L111.4 426h7.488l17.28 50.904 5.76.648V480h-24.552v-2.448l6.408-.72-4.392-13.896h-16.56l-3.96 13.68 6.768.936Zm-2.088-17.136H118.6l-7.848-24.624-7.2 24.624Zm73.224 20.808c4.608 0 7.344-1.656 9.144-5.616l-1.224-1.008c-1.368 2.16-2.16 2.736-3.24 2.736-1.368 0-2.232-.936-2.232-3.672v-19.368c0-10.44-4.104-14.832-14.328-14.832-11.16 0-17.424 4.32-18 11.088.576 2.376 2.376 3.672 4.968 3.672 2.736 0 5.184-1.944 5.4-6.84l.504-5.112a14.805 14.805 0 0 1 3.024-.288c5.472 0 7.2 2.232 7.2 9.72v4.392c-2.52.648-5.04 1.296-7.056 1.872-11.592 3.384-15.336 6.912-15.336 13.464 0 6.048 4.32 9.792 10.512 9.792 5.76 0 8.496-2.232 12.168-6.264 1.08 3.888 3.744 6.264 8.496 6.264Zm-20.448-11.232c0 4.32 2.016 6.336 5.4 6.336 1.944 0 3.6-.936 6.264-3.312V458.04c-1.656.432-3.096.864-3.96 1.224-5.04 2.088-7.704 5.472-7.704 10.728Z" fill="#FEFEFE"/><path d="M88 485v4h95.132v-4H88Z" fill="#FEFEFE"/><path d="M-42 456v4h95.132v-4H-42ZM218 456v4h95.132v-4H218Z" fill="#FEFEFE" opacity=".15"/></g><g clip-path="url(#f)"><g filter="url(#g)"><rect x="276" width="224" height="483" rx="13" fill="#5175FF"/></g><path opacity=".15" fill="#fff" d="M276 182h224v1H276z"/><circle opacity=".146" cx="388" cy="91" r="55.5" stroke="#fff" stroke-linejoin="round"/><path d="M360.703 91.5c-1.062-.51-1.896-1.213-2.5-2.11-.594-.906-.891-1.958-.891-3.156 0-1.229.313-2.302.938-3.218.625-.928 1.5-1.646 2.625-2.157 1.135-.51 2.458-.765 3.969-.765 1.5 0 2.812.255 3.937.765s2 1.23 2.625 2.157c.625.916.938 1.99.938 3.218 0 1.188-.302 2.235-.906 3.141-.594.906-1.417 1.615-2.469 2.125 1.302.542 2.317 1.344 3.047 2.406.739 1.052 1.109 2.287 1.109 3.703 0 1.365-.349 2.563-1.047 3.594-.687 1.031-1.651 1.833-2.89 2.406-1.24.573-2.688.86-4.344.86-1.656 0-3.104-.287-4.344-.86-1.24-.573-2.208-1.375-2.906-2.406-.688-1.031-1.032-2.229-1.032-3.594 0-1.416.365-2.65 1.094-3.703.74-1.062 1.755-1.864 3.047-2.406Zm1.172-4.844c0 .844.271 1.526.813 2.047.552.51 1.27.766 2.156.766.875 0 1.583-.255 2.125-.766.552-.52.828-1.203.828-2.047 0-.854-.276-1.536-.828-2.047-.542-.51-1.25-.765-2.125-.765-.886 0-1.604.255-2.156.765-.542.51-.813 1.193-.813 2.047Zm2.969 13.594c1.125 0 2.026-.302 2.703-.906.687-.604 1.031-1.396 1.031-2.375 0-.99-.344-1.781-1.031-2.375-.677-.604-1.578-.906-2.703-.906-1.125 0-2.032.302-2.719.906-.677.594-1.016 1.385-1.016 2.375 0 .979.339 1.77 1.016 2.375.687.604 1.594.906 2.719.906Zm11.875-15.469v-4.219h15.187v3.313L383.922 104h-5.156l7.593-19.219h-9.64Zm24.578-4.375c1.104 0 2.036.177 2.797.531.76.344 1.375.797 1.844 1.36a5.23 5.23 0 0 1 1.015 1.812 6.15 6.15 0 0 1 .313 1.891c0 .604-.105 1.234-.313 1.89a5.393 5.393 0 0 1-1.015 1.829c-.469.552-1.084 1.005-1.844 1.36-.761.343-1.693.515-2.797.515-1.469 0-2.641-.297-3.516-.89-.864-.595-1.489-1.324-1.875-2.188-.375-.865-.562-1.704-.562-2.516 0-.813.187-1.651.562-2.516.386-.864 1.011-1.593 1.875-2.187.875-.594 2.047-.89 3.516-.89Zm12.672.125h4.265l-14.953 23.485h-4.25l14.938-23.485Zm-12.672 7.781c.614 0 1.094-.224 1.437-.671.344-.448.516-.995.516-1.641s-.172-1.193-.516-1.64c-.343-.448-.823-.672-1.437-.672-.604 0-1.078.224-1.422.671-.344.448-.516.995-.516 1.641s.172 1.193.516 1.64c.344.448.818.672 1.422.672Zm14.641 4.657c1.104 0 2.036.177 2.796.531.761.344 1.375.797 1.844 1.36a5.394 5.394 0 0 1 1.016 1.828c.208.645.312 1.27.312 1.874 0 .813-.192 1.652-.578 2.516-.385.865-1.016 1.594-1.89 2.188-.865.593-2.032.89-3.5.89-1.469 0-2.641-.297-3.516-.89-.865-.594-1.49-1.323-1.875-2.188-.375-.864-.563-1.703-.563-2.516 0-.604.105-1.229.313-1.874a5.524 5.524 0 0 1 1-1.829c.469-.562 1.083-1.015 1.844-1.359.76-.354 1.692-.531 2.797-.531Zm0 7.906c.614 0 1.093-.219 1.437-.656.344-.448.516-.995.516-1.64 0-.657-.172-1.21-.516-1.657-.344-.448-.823-.672-1.437-.672-.615 0-1.094.224-1.438.672-.333.448-.5 1-.5 1.656 0 .646.167 1.193.5 1.641.344.437.823.656 1.438.656Z" fill="#5CFCD3"/><path d="M363.855 229.375c-1.953 0-3.691-.41-5.214-1.23-1.524-.821-2.722-1.947-3.594-3.379-.859-1.433-1.289-3.073-1.289-4.922 0-1.901.449-3.581 1.347-5.039.912-1.459 2.155-2.604 3.731-3.438 1.588-.833 3.398-1.25 5.43-1.25 2.109 0 3.945.456 5.507 1.367 1.576.899 2.793 2.168 3.653 3.809.859 1.641 1.289 3.561 1.289 5.762 0 2.487-.554 4.98-1.66 7.48-1.094 2.487-2.637 4.818-4.629 6.992-1.979 2.175-4.304 4.03-6.973 5.567l-3.594-4.082c1.862-1.081 3.529-2.298 5-3.653 1.472-1.354 2.663-2.78 3.575-4.277a9.794 9.794 0 0 1-1.192.215c-.416.052-.879.078-1.387.078Zm.313-4.609c1.276 0 2.331-.443 3.164-1.328.846-.886 1.27-2.006 1.27-3.36s-.417-2.474-1.25-3.359c-.821-.886-1.869-1.328-3.145-1.328-1.263 0-2.311.449-3.145 1.347-.833.886-1.25 2.012-1.25 3.379 0 1.354.411 2.468 1.231 3.34.82.872 1.862 1.309 3.125 1.309Zm20.273-.391c-1.328-.638-2.369-1.517-3.125-2.637-.742-1.133-1.113-2.448-1.113-3.945 0-1.536.391-2.878 1.172-4.023.781-1.159 1.875-2.058 3.281-2.696 1.42-.638 3.073-.957 4.961-.957 1.875 0 3.516.319 4.922.957 1.406.638 2.5 1.537 3.281 2.696.782 1.145 1.172 2.487 1.172 4.023 0 1.484-.377 2.793-1.133 3.926-.742 1.133-1.77 2.018-3.086 2.656 1.628.677 2.898 1.68 3.809 3.008.925 1.315 1.387 2.858 1.387 4.629 0 1.705-.436 3.203-1.309 4.492-.859 1.289-2.064 2.292-3.613 3.008-1.55.716-3.359 1.074-5.43 1.074-2.07 0-3.88-.358-5.429-1.074-1.55-.716-2.761-1.719-3.633-3.008-.86-1.289-1.289-2.787-1.289-4.492 0-1.771.455-3.314 1.367-4.629.924-1.328 2.194-2.331 3.808-3.008Zm1.465-6.055c0 1.055.339 1.908 1.016 2.559.69.638 1.588.957 2.695.957 1.094 0 1.979-.319 2.656-.957.691-.651 1.036-1.504 1.036-2.559 0-1.067-.345-1.92-1.036-2.558-.677-.638-1.562-.957-2.656-.957-1.107 0-2.005.319-2.695.957-.677.638-1.016 1.491-1.016 2.558Zm3.711 16.992c1.406 0 2.533-.377 3.379-1.132.859-.756 1.289-1.745 1.289-2.969 0-1.237-.43-2.227-1.289-2.969-.846-.755-1.973-1.133-3.379-1.133s-2.539.378-3.398 1.133c-.847.742-1.27 1.732-1.27 2.969 0 1.224.423 2.213 1.27 2.969.859.755 1.992 1.132 3.398 1.132ZM404.461 240v-29.297h5.625v17.774a18.7 18.7 0 0 1 1.289-1.778c.469-.586.983-1.204 1.543-1.855l3.789-4.375h6.152l-7.5 8.769L424.266 240h-6.895l-5.586-6.602-1.699 1.993V240h-5.625Z" fill="#fff"/><rect x="308" y="282" width="14" height="14" rx="7" fill="#fff"/><rect x="337" y="282" width="131" height="14" rx="7" fill="#7DA7FF"/><rect x="308" y="316" width="14" height="14" rx="7" fill="#fff"/><rect x="337" y="316" width="83" height="14" rx="7" fill="#7DA7FF"/><rect x="308" y="350" width="14" height="14" rx="7" fill="#fff"/><rect x="337" y="350" width="131" height="14" rx="7" fill="#7DA7FF"/><rect x="308" y="384" width="14" height="14" rx="7" fill="#fff"/><rect x="337" y="384" width="79" height="14" rx="7" fill="#7DA7FF"/><rect x="308" y="418" width="14" height="14" rx="7" fill="#fff"/><rect x="337" y="418" width="131" height="14" rx="7" fill="#7DA7FF"/><g clip-path="url(#h)"><path d="m366.475 142.284 3.522-8.009A47.075 47.075 0 0 0 389 138.25c26.095 0 47.25-21.155 47.25-47.25 0-26.096-21.155-47.25-47.25-47.25S341.75 64.904 341.75 91H333c0-30.928 25.072-56 56-56s56 25.072 56 56-25.072 56-56 56a55.816 55.816 0 0 1-22.525-4.716Z" fill="#5CFCD3"/></g></g><defs><filter id="a" x="0" y="46" width="274" height="384" filterUnits="userSpaceOnUse" color-interpolation-filters="sRGB"><feFlood flood-opacity="0" result="BackgroundImageFix"/><feColorMatrix in="SourceAlpha" values="0 0 0 0 0 0 0 0 0 0 0 0 0 0 0 0 0 0 127 0" result="hardAlpha"/><feMorphology radius="25" in="SourceAlpha" result="effect1_dropShadow_0_1159"/><feOffset dy="50"/><feGaussianBlur stdDeviation="25"/><feColorMatrix values="0 0 0 0 0.293478 0 0 0 0 0.35972 0 0 0 0 0.604535 0 0 0 0.247159 0"/><feBlend in2="BackgroundImageFix" result="effect1_dropShadow_0_1159"/><feBlend in="SourceGraphic" in2="effect1_dropShadow_0_1159" result="shape"/></filter><filter id="d" x="0" y="385" width="274" height="221" filterUnits="userSpaceOnUse" color-interpolation-filters="sRGB"><feFlood flood-opacity="0" result="BackgroundImageFix"/><feColorMatrix in="SourceAlpha" values="0 0 0 0 0 0 0 0 0 0 0 0 0 0 0 0 0 0 127 0" result="hardAlpha"/><feMorphology radius="25" in="SourceAlpha" result="effect1_dropShadow_0_1159"/><feOffset dy="50"/><feGaussianBlur stdDeviation="25"/><feColorMatrix values="0 0 0 0 0.293478 0 0 0 0 0.35972 0 0 0 0 0.604535 0 0 0 0.247159 0"/><feBlend in2="BackgroundImageFix" result="effect1_dropShadow_0_1159"/><feBlend in="SourceGraphic" in2="effect1_dropShadow_0_1159" result="shape"/></filter><filter id="g" x="251" y="0" width="274" height="558" filterUnits="userSpaceOnUse" color-interpolation-filters="sRGB"><feFlood flood-opacity="0" result="BackgroundImageFix"/><feColorMatrix in="SourceAlpha" values="0 0 0 0 0 0 0 0 0 0 0 0 0 0 0 0 0 0 127 0" result="hardAlpha"/><feMorphology radius="25" in="SourceAlpha" result="effect1_dropShadow_0_1159"/><feOffset dy="50"/><feGaussianBlur stdDeviation="25"/><feColorMatrix values="0 0 0 0 0.293478 0 0 0 0 0.35972 0 0 0 0 0.604535 0 0 0 0.247159 0"/><feBlend in2="BackgroundImageFix" result="effect1_dropShadow_0_1159"/><feBlend in="SourceGraphic" in2="effect1_dropShadow_0_1159" result="shape"/></filter><clipPath id="f"><path fill="#fff" transform="translate(276)" d="M0 0h224v483H0z"/></clipPath><clipPath id="h"><path fill="#fff" transform="translate(333 35)" d="M0 0h112v112H0z"/></clipPath><linearGradient id="c" x1="-11.826" y1="74.509" x2="-11.826" y2="315" gradientUnits="userSpaceOnUse"><stop stop-color="#024AFF" stop-opacity=".148"/><stop offset="1" stop-color="#3B77CF" stop-opacity=".01"/></linearGradient></defs></svg>
